<svg width="43" height="42" viewBox="0 0 43 42" fill="none" xmlns="http://www.w3.org/2000/svg">
<rect x="13.5625" y="6.5625" width="11.375" height="11.375" rx="5.6875" fill="#59BEB9" fill-opacity="0.2" stroke="#59BEB9" stroke-width="2.625"/>
<path d="M11.9551 25.5832C17.0872 23.5556 21.4141 23.5556 26.5462 25.5832C28.2388 26.2519 29.7275 27.3936 30.9977 28.7163C32.1574 29.9239 32.229 31.3202 31.6366 32.5C31.0204 33.7273 29.6453 34.7663 27.8241 34.9403C24.9249 35.2172 21.8088 35.4375 19.2506 35.4375C16.6925 35.4375 13.5764 35.2172 10.6772 34.9403C8.85598 34.7663 7.48093 33.7273 6.86466 32.5C6.27229 31.3202 6.34385 29.9239 7.50356 28.7163C8.77378 27.3936 10.2625 26.2519 11.9551 25.5832Z" fill="#59BEB9" fill-opacity="0.2" stroke="#59BEB9" stroke-width="2.625"/>
<mask id="path-3-outside-1_973_1282" maskUnits="userSpaceOnUse" x="19.75" y="16.25" width="24" height="24" fill="black">
<rect fill="white" x="19.75" y="16.25" width="24" height="24"/>
<path fill-rule="evenodd" clip-rule="evenodd" d="M40.25 28C40.25 32.8325 36.3325 36.75 31.5 36.75C26.6675 36.75 22.75 32.8325 22.75 28C22.75 23.1675 26.6675 19.25 31.5 19.25C36.3325 19.25 40.25 23.1675 40.25 28ZM31.5 23.1875C32.2249 23.1875 32.8125 23.7751 32.8125 24.5V26.6875H35C35.7249 26.6875 36.3125 27.2751 36.3125 28C36.3125 28.7249 35.7249 29.3125 35 29.3125H32.8125V31.5C32.8125 32.2249 32.2249 32.8125 31.5 32.8125C30.7751 32.8125 30.1875 32.2249 30.1875 31.5V29.3125H28C27.2751 29.3125 26.6875 28.7249 26.6875 28C26.6875 27.2751 27.2751 26.6875 28 26.6875H30.1875V24.5C30.1875 23.7751 30.7751 23.1875 31.5 23.1875Z"/>
</mask>
<path fill-rule="evenodd" clip-rule="evenodd" d="M40.25 28C40.25 32.8325 36.3325 36.75 31.5 36.75C26.6675 36.75 22.75 32.8325 22.75 28C22.75 23.1675 26.6675 19.25 31.5 19.25C36.3325 19.25 40.25 23.1675 40.25 28ZM31.5 23.1875C32.2249 23.1875 32.8125 23.7751 32.8125 24.5V26.6875H35C35.7249 26.6875 36.3125 27.2751 36.3125 28C36.3125 28.7249 35.7249 29.3125 35 29.3125H32.8125V31.5C32.8125 32.2249 32.2249 32.8125 31.5 32.8125C30.7751 32.8125 30.1875 32.2249 30.1875 31.5V29.3125H28C27.2751 29.3125 26.6875 28.7249 26.6875 28C26.6875 27.2751 27.2751 26.6875 28 26.6875H30.1875V24.5C30.1875 23.7751 30.7751 23.1875 31.5 23.1875Z" fill="#59BEB9"/>
<path d="M32.8125 26.6875H30.1875V29.3125H32.8125V26.6875ZM32.8125 29.3125V26.6875H30.1875V29.3125H32.8125ZM30.1875 29.3125H32.8125V26.6875H30.1875V29.3125ZM30.1875 26.6875V29.3125H32.8125V26.6875H30.1875ZM31.5 39.375C37.7822 39.375 42.875 34.2822 42.875 28H37.625C37.625 31.3827 34.8827 34.125 31.5 34.125V39.375ZM20.125 28C20.125 34.2822 25.2178 39.375 31.5 39.375V34.125C28.1173 34.125 25.375 31.3827 25.375 28H20.125ZM31.5 16.625C25.2178 16.625 20.125 21.7178 20.125 28H25.375C25.375 24.6173 28.1173 21.875 31.5 21.875V16.625ZM42.875 28C42.875 21.7178 37.7822 16.625 31.5 16.625V21.875C34.8827 21.875 37.625 24.6173 37.625 28H42.875ZM35.4375 24.5C35.4375 22.3254 33.6746 20.5625 31.5 20.5625V25.8125C30.7751 25.8125 30.1875 25.2249 30.1875 24.5H35.4375ZM35.4375 26.6875V24.5H30.1875V26.6875H35.4375ZM32.8125 29.3125H35V24.0625H32.8125V29.3125ZM35 29.3125C34.2751 29.3125 33.6875 28.7249 33.6875 28H38.9375C38.9375 25.8254 37.1746 24.0625 35 24.0625V29.3125ZM33.6875 28C33.6875 27.2751 34.2751 26.6875 35 26.6875V31.9375C37.1746 31.9375 38.9375 30.1746 38.9375 28H33.6875ZM35 26.6875H32.8125V31.9375H35V26.6875ZM35.4375 31.5V29.3125H30.1875V31.5H35.4375ZM31.5 35.4375C33.6746 35.4375 35.4375 33.6746 35.4375 31.5H30.1875C30.1875 30.7751 30.7751 30.1875 31.5 30.1875V35.4375ZM27.5625 31.5C27.5625 33.6746 29.3254 35.4375 31.5 35.4375V30.1875C32.2249 30.1875 32.8125 30.7751 32.8125 31.5H27.5625ZM27.5625 29.3125V31.5H32.8125V29.3125H27.5625ZM30.1875 26.6875H28V31.9375H30.1875V26.6875ZM28 26.6875C28.7249 26.6875 29.3125 27.2751 29.3125 28H24.0625C24.0625 30.1746 25.8254 31.9375 28 31.9375V26.6875ZM29.3125 28C29.3125 28.7249 28.7249 29.3125 28 29.3125V24.0625C25.8254 24.0625 24.0625 25.8254 24.0625 28H29.3125ZM28 29.3125H30.1875V24.0625H28V29.3125ZM27.5625 24.5V26.6875H32.8125V24.5H27.5625ZM31.5 20.5625C29.3254 20.5625 27.5625 22.3254 27.5625 24.5H32.8125C32.8125 25.2249 32.2249 25.8125 31.5 25.8125V20.5625Z" fill="#F9FAFA" mask="url(#path-3-outside-1_973_1282)"/>
</svg>
