<svg width="24" height="24" viewBox="0 0 24 24" fill="none" xmlns="http://www.w3.org/2000/svg">
<path d="M9.05747 4.50172C9.33456 4.19384 9.30961 3.71962 9.00172 3.44253C8.69384 3.16544 8.21962 3.19039 7.94253 3.49828L9.05747 4.50172ZM4 9L3.44253 8.49828C3.18582 8.7835 3.18582 9.2165 3.44253 9.50172L4 9ZM7.94253 14.5017C8.21962 14.8096 8.69384 14.8346 9.00172 14.5575C9.30961 14.2804 9.33456 13.8062 9.05747 13.4983L7.94253 14.5017ZM7.94253 3.49828L3.44253 8.49828L4.55747 9.50172L9.05747 4.50172L7.94253 3.49828ZM3.44253 9.50172L7.94253 14.5017L9.05747 13.4983L4.55747 8.49828L3.44253 9.50172Z" fill="#090E15"/>
<path d="M4 8.25C3.58579 8.25 3.25 8.58579 3.25 9C3.25 9.41421 3.58579 9.75 4 9.75V8.25ZM10.8902 18.25C10.476 18.25 10.1402 18.5858 10.1402 19C10.1402 19.4142 10.476 19.75 10.8902 19.75V18.25ZM4 9.75H15V8.25H4V9.75ZM18.25 13V15H19.75V13H18.25ZM15 18.25H10.8902V19.75H15V18.25ZM18.25 15C18.25 16.7949 16.7949 18.25 15 18.25V19.75C17.6234 19.75 19.75 17.6234 19.75 15H18.25ZM15 9.75C16.7949 9.75 18.25 11.2051 18.25 13H19.75C19.75 10.3766 17.6234 8.25 15 8.25V9.75Z" fill="#090E15"/>
</svg>
