<svg width="42" height="42" viewBox="0 0 42 42" fill="none" xmlns="http://www.w3.org/2000/svg">
<path d="M15.3125 30.1875H26.6875V31.5C26.6875 33.6746 24.9246 35.4375 22.75 35.4375H19.25C17.0754 35.4375 15.3125 33.6746 15.3125 31.5V30.1875Z" stroke="#5CB3E0" stroke-width="2.625"/>
<mask id="path-2-inside-1_338_1532" fill="white">
<path fill-rule="evenodd" clip-rule="evenodd" d="M20.9995 5.25C14.234 5.25 8.74947 10.7345 8.74947 17.5V22.75L5.72946 30.3C5.49956 30.8748 5.92285 31.5 6.54188 31.5H35.4571C36.0761 31.5 36.4994 30.8748 36.2695 30.3L33.2495 22.75V17.5C33.2495 10.7345 27.765 5.25 20.9995 5.25Z"/>
</mask>
<path fill-rule="evenodd" clip-rule="evenodd" d="M20.9995 5.25C14.234 5.25 8.74947 10.7345 8.74947 17.5V22.75L5.72946 30.3C5.49956 30.8748 5.92285 31.5 6.54188 31.5H35.4571C36.0761 31.5 36.4994 30.8748 36.2695 30.3L33.2495 22.75V17.5C33.2495 10.7345 27.765 5.25 20.9995 5.25Z" fill="#5CB3E0" fill-opacity="0.15"/>
<path d="M8.74947 22.75L11.1867 23.7249L11.3745 23.2555V22.75H8.74947ZM5.72946 30.3L3.29221 29.3251L3.29221 29.3251L5.72946 30.3ZM36.2695 30.3L38.7067 29.3251V29.3251L36.2695 30.3ZM33.2495 22.75H30.6245V23.2555L30.8122 23.7249L33.2495 22.75ZM11.3745 17.5C11.3745 12.1843 15.6837 7.875 20.9995 7.875V2.625C12.7842 2.625 6.12447 9.28476 6.12447 17.5H11.3745ZM11.3745 22.75V17.5H6.12447V22.75H11.3745ZM8.16671 31.2749L11.1867 23.7249L6.31222 21.7751L3.29221 29.3251L8.16671 31.2749ZM6.54188 28.875C7.77994 28.875 8.62652 30.1254 8.16671 31.2749L3.29221 29.3251C2.3726 31.6242 4.06575 34.125 6.54188 34.125V28.875ZM35.4571 28.875H6.54188V34.125H35.4571V28.875ZM33.8322 31.2749C33.3724 30.1254 34.219 28.875 35.4571 28.875V34.125C37.9332 34.125 39.6264 31.6242 38.7067 29.3251L33.8322 31.2749ZM30.8122 23.7249L33.8322 31.2749L38.7067 29.3251L35.6867 21.7751L30.8122 23.7249ZM30.6245 17.5V22.75H35.8745V17.5H30.6245ZM20.9995 7.875C26.3152 7.875 30.6245 12.1843 30.6245 17.5H35.8745C35.8745 9.28476 29.2147 2.625 20.9995 2.625V7.875Z" fill="#5CB3E0" mask="url(#path-2-inside-1_338_1532)"/>
<path d="M6.99934 10.1834C6.99934 10.1834 7.72775 8.13909 8.77088 7.25585C9.71115 6.45971 11.2616 6.14781 11.2616 6.14781" stroke="#5CB3E0" stroke-width="2.625" stroke-linecap="round" stroke-linejoin="round"/>
<path d="M34.9948 10.1834C34.9948 10.1834 34.2664 8.13909 33.2233 7.25585C32.283 6.45971 30.7325 6.14781 30.7325 6.14781" stroke="#5CB3E0" stroke-width="2.625" stroke-linecap="round" stroke-linejoin="round"/>
</svg>
