<svg width="24" height="24" viewBox="0 0 24 24" fill="none" xmlns="http://www.w3.org/2000/svg">
<path fill-rule="evenodd" clip-rule="evenodd" d="M8 3C6.34315 3 5 4.34315 5 6V18C5 19.6569 6.34315 21 8 21H13.8464C12.4127 19.8077 11.5 18.0104 11.5 16C11.5 12.4101 14.4101 9.5 18 9.5V6C18 4.34315 16.6569 3 15 3H8Z" fill="black" fill-opacity="0.15"/>
<path d="M17.2392 8.89491V5.7505C17.2392 4.64593 16.3438 3.7505 15.2392 3.7505L7.7505 3.75049C6.64593 3.75049 5.7505 4.64592 5.7505 5.75049L5.75049 18.26C5.75049 19.3646 6.64592 20.26 7.75049 20.26H13.0001" stroke="#090E15" stroke-width="1.5" stroke-linecap="round"/>
<circle cx="8.75" cy="12.25" r="1.25" fill="#090E15"/>
<path fill-rule="evenodd" clip-rule="evenodd" d="M23 16C23 18.7614 20.7614 21 18 21C15.2386 21 13 18.7614 13 16C13 13.2386 15.2386 11 18 11C20.7614 11 23 13.2386 23 16ZM15.25 16C15.25 15.5858 15.5858 15.25 16 15.25H18.6893L17.9697 14.5303C17.6768 14.2374 17.6768 13.7626 17.9697 13.4697C18.2626 13.1768 18.7374 13.1768 19.0303 13.4697L21.0303 15.4697C21.171 15.6103 21.25 15.8011 21.25 16C21.25 16.1989 21.171 16.3897 21.0303 16.5303L19.0303 18.5303C18.7374 18.8232 18.2626 18.8232 17.9697 18.5303C17.6768 18.2374 17.6768 17.7626 17.9697 17.4697L18.6893 16.75H16C15.5858 16.75 15.25 16.4142 15.25 16Z" fill="#090E15"/>
</svg>
