<svg width="24" height="24" viewBox="0 0 24 24" fill="none" xmlns="http://www.w3.org/2000/svg">
<path d="M3.79551 11.9808C4.00488 11.3868 4.64691 9.80968 5.95011 8.39198C7.23814 6.9908 9.16343 5.75 12 5.75C14.8366 5.75 16.7619 6.9908 18.0499 8.39198C19.3531 9.80968 19.9951 11.3868 20.2045 11.9808C20.2079 11.9906 20.2084 11.9966 20.2084 12C20.2084 12.0034 20.2079 12.0094 20.2045 12.0192C19.9951 12.6132 19.3531 14.1903 18.0499 15.608C16.7619 17.0092 14.8366 18.25 12 18.25C9.16343 18.25 7.23814 17.0092 5.95011 15.608C4.64691 14.1903 4.00488 12.6132 3.79551 12.0192C3.79206 12.0094 3.7916 12.0034 3.7916 12C3.7916 11.9966 3.79206 11.9906 3.79551 11.9808Z" fill="#E8E8E8" stroke="#090E15" stroke-width="1.5"/>
<circle cx="12" cy="12" r="3.25" fill="white" stroke="#090E15" stroke-width="1.5"/>
</svg>
