<svg width="24" height="24" viewBox="0 0 24 24" fill="none" xmlns="http://www.w3.org/2000/svg">
<mask id="path-1-inside-1_877_1135" fill="white">
<path fill-rule="evenodd" clip-rule="evenodd" d="M15.5 3C12.4624 3 10 5.46243 10 8.5C10 8.8101 10.0257 9.1142 10.075 9.4103L3.43934 16.0459C3.15803 16.3272 3 16.7088 3 17.1066V19.5C3 20.3284 3.67157 21 4.5 21H7C7.82842 21 8.5 20.3284 8.5 19.5V19C8.5 18.4477 8.94771 18 9.5 18H10.75C11.4404 18 12 17.4404 12 16.75C12 16.0596 12.5596 15.5 13.25 15.5C13.9404 15.5 14.5 14.9404 14.5 14.25V14.0129C14.5 13.9785 14.5014 13.9442 14.5042 13.9101C14.8272 13.9691 15.16 14 15.5 14C18.5376 14 21 11.5376 21 8.5C21 5.46243 18.5376 3 15.5 3Z"/>
</mask>
<path fill-rule="evenodd" clip-rule="evenodd" d="M15.5 3C12.4624 3 10 5.46243 10 8.5C10 8.8101 10.0257 9.1142 10.075 9.4103L3.43934 16.0459C3.15803 16.3272 3 16.7088 3 17.1066V19.5C3 20.3284 3.67157 21 4.5 21H7C7.82842 21 8.5 20.3284 8.5 19.5V19C8.5 18.4477 8.94771 18 9.5 18H10.75C11.4404 18 12 17.4404 12 16.75C12 16.0596 12.5596 15.5 13.25 15.5C13.9404 15.5 14.5 14.9404 14.5 14.25V14.0129C14.5 13.9785 14.5014 13.9442 14.5042 13.9101C14.8272 13.9691 15.16 14 15.5 14C18.5376 14 21 11.5376 21 8.5C21 5.46243 18.5376 3 15.5 3Z" fill="white" fill-opacity="0.3"/>
<path d="M10.075 9.4103L11.1356 10.471L11.6814 9.9252L11.5546 9.16386L10.075 9.4103ZM3.43934 16.0459L4.5 17.1066L3.43934 16.0459ZM14.5042 13.9101L14.774 12.4346L13.1445 12.1365L13.0092 13.7876L14.5042 13.9101ZM11.5 8.5C11.5 6.29086 13.2909 4.5 15.5 4.5V1.5C11.634 1.5 8.5 4.63401 8.5 8.5H11.5ZM11.5546 9.16386C11.5188 8.94888 11.5 8.7272 11.5 8.5H8.5C8.5 8.893 8.53253 9.27952 8.59536 9.65675L11.5546 9.16386ZM4.5 17.1066L11.1356 10.471L9.01432 8.34964L2.37868 14.9853L4.5 17.1066ZM4.5 17.1066L4.5 17.1066L2.37868 14.9853C1.81607 15.5479 1.5 16.311 1.5 17.1066H4.5ZM4.5 19.5V17.1066H1.5V19.5H4.5ZM4.5 19.5H4.5H1.5C1.5 21.1569 2.84314 22.5 4.5 22.5V19.5ZM7 19.5H4.5V22.5H7V19.5ZM7 19.5V22.5C8.65685 22.5 10 21.1569 10 19.5H7ZM7 19V19.5H10V19H7ZM9.5 16.5C8.11929 16.5 7 17.6193 7 19H10C10 19.2761 9.77614 19.5 9.5 19.5V16.5ZM10.75 16.5H9.5V19.5H10.75V16.5ZM10.5 16.75C10.5 16.6119 10.6119 16.5 10.75 16.5V19.5C12.2688 19.5 13.5 18.2688 13.5 16.75H10.5ZM13.25 14C11.7312 14 10.5 15.2312 10.5 16.75H13.5C13.5 16.8881 13.3881 17 13.25 17V14ZM13 14.25C13 14.1119 13.1119 14 13.25 14V17C14.7688 17 16 15.7688 16 14.25H13ZM13 14.0129V14.25H16V14.0129H13ZM13.0092 13.7876C13.0031 13.8622 13 13.9373 13 14.0129H16C16 14.0196 15.9997 14.0262 15.9992 14.0325L13.0092 13.7876ZM15.5 12.5C15.2509 12.5 15.0084 12.4774 14.774 12.4346L14.2344 15.3856C14.6459 15.4609 15.0691 15.5 15.5 15.5V12.5ZM19.5 8.5C19.5 10.7091 17.7091 12.5 15.5 12.5V15.5C19.366 15.5 22.5 12.366 22.5 8.5H19.5ZM15.5 4.5C17.7091 4.5 19.5 6.29086 19.5 8.5H22.5C22.5 4.63401 19.366 1.5 15.5 1.5V4.5Z" fill="white" mask="url(#path-1-inside-1_877_1135)"/>
<path d="M17.75 7.25C17.75 7.94036 17.1904 8.5 16.5 8.5C15.8096 8.5 15.25 7.94036 15.25 7.25C15.25 6.55964 15.8096 6 16.5 6C17.1904 6 17.75 6.55964 17.75 7.25Z" fill="white"/>
</svg>
