<svg width="95" height="24" viewBox="0 0 95 24" fill="none" xmlns="http://www.w3.org/2000/svg">
<path d="M7.00004 22V21.944C6.55204 20.572 6.32804 19.396 6.32804 17.072V11.78C6.72004 11.304 7.19604 10.968 7.61604 10.968C8.31604 10.968 9.82804 11.668 10.528 12.62H10.668L11.172 7.916C8.76404 7.748 7.39204 9.96 6.21604 11.164V7.776L0.420044 9.4V9.45601C1.42804 10.632 1.82004 11.836 1.82004 13.908V17.072C1.82004 19.452 1.59604 20.572 1.14804 21.944V22H7.00004Z" fill="#090E15"/>
<path d="M17.8737 8.42C18.9657 8.42 19.6657 9.54 19.6657 12.172V13.236L15.6897 13.292C15.6897 10.744 16.4177 8.42 17.8737 8.42ZM24.0057 17.996L23.8657 17.912C23.3617 18.472 22.1857 19.256 20.2537 19.256C17.7897 19.256 15.8297 17.968 15.6897 13.852L24.0337 13.88C24.0897 11.024 21.9617 7.916 18.0417 7.916C14.1497 7.916 11.1257 11.024 11.1257 15.42C11.1257 19.34 13.7017 22.42 17.9297 22.42C21.1217 22.42 23.2497 20.628 24.0057 17.996Z" fill="#090E15"/>
<path d="M25.2584 22H31.5025V21.944C30.9705 20.852 30.6345 19.788 30.6345 17.604V8.98H33.8265V8.364H30.6345V5.704C30.6345 2.68 31.4744 0.720004 32.4544 0.720004C33.5184 0.720004 34.7224 2.904 35.7864 4.36L35.9544 4.304L35.5625 0.524004C34.8625 0.356003 34.0784 0.216003 33.1824 0.216003C29.2064 0.216003 26.1264 3.212 26.1264 7.664V8.364H24.3624V8.98H26.1264V17.604C26.1264 19.872 25.7904 20.852 25.2584 21.944V22Z" fill="#090E15"/>
<path d="M41.08 21.944C40.604 20.572 40.408 19.396 40.408 17.072V11.472C40.912 10.576 41.78 10.016 42.732 10.016C43.908 10.016 44.356 10.828 44.356 11.892V17.1C44.356 19.368 44.16 20.572 43.684 21.944V22H49.536V21.944C49.06 20.572 48.836 19.424 48.836 17.044V11.472C49.368 10.576 50.236 10.016 51.188 10.016C52.364 10.016 52.812 10.828 52.812 11.892V17.1C52.812 19.368 52.588 20.572 52.14 21.944V22H57.964V21.944C57.516 20.572 57.292 19.424 57.292 17.044V11.696C57.292 9.372 55.752 7.916 53.372 7.916C51.048 7.916 49.564 9.372 48.836 10.604L48.752 10.576C48.36 8.924 46.932 7.916 44.916 7.916C42.592 7.916 41.108 9.372 40.408 10.604L40.296 10.576V7.776L34.5 9.4V9.45601C35.48 10.632 35.9 11.836 35.9 13.908V17.072C35.9 19.452 35.648 20.572 35.228 21.944V22H41.08V21.944Z" fill="#090E15"/>
<path d="M64.5651 19.984C63.3331 19.984 62.6891 19.256 62.6891 18.164C62.6891 16.848 63.7811 15.728 65.7411 15.196V19.704C65.4331 19.872 65.0131 19.984 64.5651 19.984ZM68.8211 22.392C71.2011 22.392 72.1811 20.74 72.5731 19.816L72.5171 19.704C72.1531 19.956 71.7611 20.04 71.4531 20.04C70.5571 20.04 70.2491 19.452 70.2491 18.78V11.584C70.2491 9.4 68.8771 7.916 65.8811 7.916C62.8571 7.916 60.6451 9.4 59.3011 11.024L59.4131 11.22C60.6731 10.688 61.9611 10.464 63.0531 10.464C65.0411 10.464 65.7411 11.248 65.7411 12.872V14.608C62.5771 15.28 58.7411 16.596 58.7411 19.62C58.7411 21.552 60.1971 22.42 61.9051 22.42C63.6971 22.42 65.0411 21.384 65.8251 20.236C66.0771 21.496 67.1131 22.392 68.8211 22.392Z" fill="#090E15"/>
<path d="M77.596 22.42C79.808 22.42 81.32 21.328 81.936 20.236L81.852 20.152C81.824 20.18 81.236 20.628 80.256 20.628C79.136 20.628 78.24 20.096 78.24 18.416V8.98H81.572V8.364H78.24V5.116H77.932L72.164 8.728V8.98H73.732V18.528C73.732 21.328 75.328 22.42 77.596 22.42Z" fill="#090E15"/>
<path d="M88.5838 8.42C89.6758 8.42 90.3758 9.54 90.3758 12.172V13.236L86.3998 13.292C86.3998 10.744 87.1278 8.42 88.5838 8.42ZM94.7158 17.996L94.5758 17.912C94.0718 18.472 92.8958 19.256 90.9638 19.256C88.4998 19.256 86.5398 17.968 86.3998 13.852L94.7438 13.88C94.7998 11.024 92.6718 7.916 88.7518 7.916C84.8598 7.916 81.8358 11.024 81.8358 15.42C81.8358 19.34 84.4118 22.42 88.6398 22.42C91.8318 22.42 93.9598 20.628 94.7158 17.996Z" fill="#090E15"/>
</svg>
