<svg width="42" height="42" viewBox="0 0 42 42" fill="none" xmlns="http://www.w3.org/2000/svg">
<rect x="15.3125" y="6.5625" width="11.375" height="18.375" rx="5.6875" fill="#E6C179" fill-opacity="0.2" stroke="#E6C179" stroke-width="2.625"/>
<path fill-rule="evenodd" clip-rule="evenodd" d="M11.8125 21.875C11.8125 21.1501 11.2249 20.5625 10.5 20.5625C9.77513 20.5625 9.1875 21.1501 9.1875 21.875C9.1875 27.4324 13.6926 31.9375 19.25 31.9375H19.6875V35C19.6875 35.7249 20.2751 36.3125 21 36.3125C21.7249 36.3125 22.3125 35.7249 22.3125 35V31.9375H22.75C28.3074 31.9375 32.8125 27.4324 32.8125 21.875C32.8125 21.1501 32.2249 20.5625 31.5 20.5625C30.7751 20.5625 30.1875 21.1501 30.1875 21.875C30.1875 25.9826 26.8576 29.3125 22.75 29.3125H19.25C15.1424 29.3125 11.8125 25.9826 11.8125 21.875Z" fill="#E6C179"/>
</svg>
