<svg width="24" height="24" viewBox="0 0 24 24" fill="none" xmlns="http://www.w3.org/2000/svg">
<rect x="8.75" y="3.75" width="6.5" height="10.5" rx="3.25" fill="#E8E8E8" stroke="black" stroke-width="1.5"/>
<path fill-rule="evenodd" clip-rule="evenodd" d="M6.75 12.5C6.75 12.0858 6.41421 11.75 6 11.75C5.58579 11.75 5.25 12.0858 5.25 12.5C5.25 15.6756 7.82436 18.25 11 18.25H11.25V20C11.25 20.4142 11.5858 20.75 12 20.75C12.4142 20.75 12.75 20.4142 12.75 20V18.25H13C16.1756 18.25 18.75 15.6756 18.75 12.5C18.75 12.0858 18.4142 11.75 18 11.75C17.5858 11.75 17.25 12.0858 17.25 12.5C17.25 14.8472 15.3472 16.75 13 16.75H11C8.65279 16.75 6.75 14.8472 6.75 12.5Z" fill="black"/>
</svg>
