<svg width="24" height="24" viewBox="0 0 24 24" fill="none" xmlns="http://www.w3.org/2000/svg">
<rect x="8.75" y="3.75" width="6.5" height="6.5" rx="3.25" fill="#E8E8E8" stroke="black" stroke-width="1.5"/>
<path d="M7.83109 14.619C10.7637 13.4603 13.2362 13.4603 16.1688 14.619C17.136 15.0011 17.9867 15.6535 18.7126 16.4093C19.3753 17.0994 19.4162 17.8973 19.0777 18.5714C18.7255 19.2728 17.9398 19.8664 16.8991 19.9659C15.2424 20.1241 13.4617 20.25 12 20.25C10.5382 20.25 8.75754 20.1241 7.10085 19.9659C6.06014 19.8664 5.2744 19.2728 4.92224 18.5714C4.58375 17.8973 4.62464 17.0994 5.28733 16.4093C6.01317 15.6535 6.86389 15.0011 7.83109 14.619Z" fill="#E8E8E8" stroke="black" stroke-width="1.5"/>
</svg>
