<svg width="24" height="24" viewBox="0 0 24 24" fill="none" xmlns="http://www.w3.org/2000/svg">
<path d="M12.939 6.27642L9.00621 11.5612C8.94148 11.6481 8.90652 11.7537 8.90652 11.8621V18.9302C8.90652 19.1285 9.02285 19.3085 9.20374 19.3898L11.3282 20.3458C11.3932 20.3751 11.4637 20.3902 11.535 20.3902H16.0895C17.3496 20.1382 18.2317 19.7602 18.9878 18.752L20.5 11.3171C20.248 10.561 19.3659 9.80488 18.4838 9.67886C17.2619 9.50432 15.3334 9.42683 15.3334 9.42683C15.3334 9.42683 16.0895 7.15195 16.0895 5.64634C16.0895 4.09135 15.5021 3.41744 14.4999 3.10688C14.2591 3.03229 14.0117 3.17751 13.9293 3.41565L12.939 6.27642Z" fill="#E8E8E8" stroke="#090E15" stroke-width="1.5" stroke-linecap="round"/>
<path d="M5.00002 19.3821V11.5691C5.00002 11.1515 5.33854 10.813 5.75612 10.813H8.15043C8.56801 10.813 8.90652 11.1515 8.90652 11.5691V19.3821C8.90652 19.7997 8.56801 20.1382 8.15043 20.1382H5.75612C5.33854 20.1382 5.00002 19.7997 5.00002 19.3821Z" fill="#E8E8E8" stroke="#090E15" stroke-width="1.5" stroke-linecap="round"/>
</svg>
