<svg width="42" height="42" viewBox="0 0 42 42" fill="none" xmlns="http://www.w3.org/2000/svg">
<path d="M22.6428 10.9837L15.6856 20.3325C15.6209 20.4195 15.5859 20.525 15.5859 20.6334V33.3723C15.5859 33.5706 15.7023 33.7505 15.8832 33.8319L19.8978 35.6385C19.9629 35.6678 20.0334 35.6829 20.1047 35.6829H28.1561C30.3613 35.2419 31.905 34.5803 33.2282 32.8161L35.8746 19.8049C35.4335 18.4817 33.8898 17.1585 32.3461 16.938C30.2079 16.6326 26.8329 16.497 26.8329 16.497C26.8329 16.497 28.1561 12.5159 28.1561 9.8811C28.1561 6.99951 27.0034 5.84688 25.0567 5.34741C24.8126 5.28479 24.5662 5.42751 24.4837 5.66565L22.6428 10.9837Z" fill="#E06E6E" fill-opacity="0.2" stroke="#E06E6E" stroke-width="2.625" stroke-linecap="round"/>
<path d="M8.74955 34.4859V19.6789C8.74955 19.2614 9.08807 18.9229 9.50565 18.9229H14.8298C15.2474 18.9229 15.5859 19.2614 15.5859 19.6789V34.4859C15.5859 34.9034 15.2474 35.242 14.8298 35.242H9.50565C9.08807 35.242 8.74955 34.9034 8.74955 34.4859Z" fill="#E06E6E" fill-opacity="0.2" stroke="#E06E6E" stroke-width="2.625" stroke-linecap="round"/>
</svg>
